<svg width="24" height="24" viewBox="0 0 24 24" fill="#111111" xmlns="http://www.w3.org/2000/svg">
  <path d="M12.5386 14.7C12.5386 14.4239 12.3147 14.2 12.0386 14.2C11.7624 14.2 11.5386 14.4239 11.5386 14.7V15.5462C11.5386 15.8223 11.7624 16.0462 12.0386 16.0462C12.3147 16.0462 12.5386 15.8223 12.5386 15.5462V14.7Z"/>
  <path d="M12.5386 7.5C12.5386 7.22386 12.3147 7 12.0386 7C11.7624 7 11.5386 7.22386 11.5386 7.5V8.5C11.5386 8.77614 11.7624 9 12.0386 9C12.3147 9 12.5386 8.77614 12.5386 8.5V7.5Z"/>
  <path d="M12 0C18.6274 0 24 5.37258 24 12C24 18.6274 18.6274 24 12 24C5.37258 24 0 18.6274 0 12C0 9.19094 0.968965 6.52907 2.71249 4.40063C2.91248 4.15649 3.27251 4.1207 3.51665 4.32069C3.76079 4.52068 3.79658 4.88071 3.59659 5.12485C2.01889 7.05085 1.14286 9.45744 1.14286 12C1.14286 17.9962 6.00377 22.8571 12 22.8571C17.9962 22.8571 22.8571 17.9962 22.8571 12C22.8571 6.00377 17.9962 1.14286 12 1.14286C9.60614 1.14286 7.33147 1.91898 5.46192 3.33138C5.21011 3.52161 4.85176 3.4717 4.66152 3.21989C4.47129 2.96808 4.5212 2.60973 4.77301 2.41949C6.83929 0.858477 9.35533 0 12 0Z"/>
  <path d="M12 19.9385C7.61572 19.9385 4.06155 16.3843 4.06155 12C4.06155 7.61571 7.61572 4.06154 12 4.06154C16.3843 4.06154 19.9385 7.61571 19.9385 12C19.9385 13.8581 19.2974 15.6194 18.144 17.0273C17.9502 17.264 17.6012 17.2987 17.3646 17.1048C17.128 16.911 17.0933 16.562 17.2871 16.3254C18.2797 15.1136 18.8308 13.5998 18.8308 12C18.8308 8.22747 15.7725 5.16923 12 5.16923C8.22749 5.16923 5.16925 8.22747 5.16925 12C5.16925 15.7725 8.22749 18.8308 12 18.8308C13.5063 18.8308 14.9371 18.3426 16.1133 17.454C16.3574 17.2696 16.7047 17.318 16.8891 17.562C17.0735 17.8061 17.0251 18.1534 16.781 18.3378C15.4141 19.3704 13.7494 19.9385 12 19.9385Z"/>
  <path d="M12.3325 15.1224C12.626 15.1148 12.9081 15.0673 13.179 14.9799C13.4499 14.8925 13.6907 14.7652 13.9014 14.598C14.112 14.4309 14.2795 14.22 14.4036 13.9654C14.5278 13.7109 14.5898 13.4126 14.5898 13.0707C14.5898 12.7363 14.5146 12.4304 14.3641 12.1531C14.2136 11.8757 13.9954 11.6573 13.7095 11.4977C13.3859 11.3153 13.0906 11.188 12.8235 11.1158C12.5564 11.0437 12.2685 10.9734 11.96 10.905C11.9676 10.905 11.9111 10.8917 11.7907 10.8651C11.6704 10.8385 11.5387 10.7929 11.3957 10.7283C11.2527 10.6637 11.1211 10.5782 11.0007 10.4718C10.8803 10.3655 10.8276 10.2363 10.8427 10.0843C10.8577 9.90192 10.9141 9.75184 11.012 9.63406C11.1098 9.51628 11.2283 9.41939 11.3675 9.3434C11.5067 9.26741 11.6609 9.21422 11.8302 9.18382C11.9995 9.15343 12.1632 9.13823 12.3212 9.13823C12.5319 9.13823 12.7351 9.16293 12.9307 9.21232C13.1263 9.26171 13.322 9.3168 13.5176 9.37759C13.6154 9.41559 13.7057 9.42319 13.7885 9.40039C13.8713 9.37759 13.9409 9.3415 13.9973 9.29211C14.0537 9.24271 14.097 9.18192 14.1271 9.10973C14.1572 9.03755 14.1722 8.97106 14.1722 8.91026C14.1722 8.82668 14.1478 8.74309 14.0989 8.6595C14.05 8.57591 13.9728 8.50372 13.8675 8.44293C13.6719 8.33655 13.4687 8.25676 13.258 8.20357C13.0473 8.15038 12.8103 8.12378 12.547 8.12378C12.2309 8.12378 11.9111 8.16177 11.5876 8.23776C11.264 8.31375 10.9668 8.43153 10.6959 8.59111C10.4251 8.75069 10.2012 8.95776 10.0244 9.21232C9.84756 9.46688 9.75538 9.77274 9.74786 10.1299C9.74033 10.411 9.793 10.6523 9.90587 10.8537C10.0187 11.055 10.1692 11.2241 10.3573 11.3609C10.5454 11.4977 10.7618 11.6079 11.0063 11.6915C11.2509 11.775 11.5011 11.8396 11.7569 11.8852C11.9149 11.908 12.0955 11.9422 12.2986 11.9878C12.5018 12.0334 12.6918 12.1018 12.8686 12.193C13.0454 12.2842 13.1922 12.4115 13.3088 12.5748C13.4254 12.7382 13.48 12.9491 13.4725 13.2074C13.4574 13.4734 13.3615 13.6919 13.1847 13.8628C13.0078 14.0338 12.7163 14.1193 12.3099 14.1193C11.9488 14.1193 11.6365 14.0604 11.3731 13.9426C11.1098 13.8248 10.8389 13.6444 10.5605 13.4012C10.4853 13.348 10.4119 13.3062 10.3404 13.2758C10.2689 13.2454 10.1918 13.2302 10.109 13.2302C9.95854 13.2302 9.83439 13.2739 9.73657 13.3613C9.63875 13.4487 9.58984 13.5608 9.58984 13.6976C9.58984 13.7963 9.61618 13.9027 9.66885 14.0167L9.68014 14.0281C9.81558 14.1877 9.98112 14.3359 10.1768 14.4726C10.3724 14.6094 10.5868 14.7272 10.8201 14.826C11.0534 14.9248 11.2998 15.0008 11.5594 15.054C11.819 15.1072 12.0767 15.13 12.3325 15.1224Z"/>
</svg>
